<?xml version="1.0" encoding="UTF-8" standalone="no"?>
<!-- Created with Inkscape (http://www.inkscape.org/) -->

<svg
   version="1.1"
   id="svg1"
   width="1365.3333"
   height="1365.3333"
   viewBox="0 0 1365.3333 1365.3333"
   sodipodi:docname="svg.svg"
   inkscape:version="1.4 (86a8ad7, 2024-10-11)"
   xmlns:inkscape="http://www.inkscape.org/namespaces/inkscape"
   xmlns:sodipodi="http://sodipodi.sourceforge.net/DTD/sodipodi-0.dtd"
   xmlns="http://www.w3.org/2000/svg"
   xmlns:svg="http://www.w3.org/2000/svg">
  <defs
     id="defs1" />
  <sodipodi:namedview
     id="namedview1"
     pagecolor="#ffffff"
     bordercolor="#000000"
     borderopacity="0.25"
     inkscape:showpageshadow="2"
     inkscape:pageopacity="0.0"
     inkscape:pagecheckerboard="0"
     inkscape:deskcolor="#d1d1d1"
     inkscape:zoom="0.62622074"
     inkscape:cx="640.34928"
     inkscape:cy="650.72901"
     inkscape:window-width="1920"
     inkscape:window-height="1057"
     inkscape:window-x="-8"
     inkscape:window-y="-8"
     inkscape:window-maximized="1"
     inkscape:current-layer="g1" />
  <g
     inkscape:groupmode="layer"
     inkscape:label="Image"
     id="g1">
    <path
       style="fill:#ff00ff"
       d="m 119.76607,918.20657 c 0,0 20.75946,-59.08459 28.74386,-65.47212 7.98441,-6.38752 20.75946,-6.38752 20.75946,-6.38752 l 12.77504,-33.5345 78.24717,-51.10019 c 0,0 7.98441,-19.16258 17.56569,-19.16258 9.58129,0 12.77505,0 12.77505,0 l 28.74386,-22.35633 c 0,0 -1.59688,-14.37193 12.77505,-12.77505 14.37193,1.59688 14.37193,-1.59688 14.37193,-1.59688 l 20.75945,-22.35633 c 0,0 12.77505,-14.37193 23.95321,-12.77505 11.17817,1.59688 28.74386,-33.5345 28.74386,-33.5345 0,0 4.79065,-11.17817 11.17817,-11.17817 6.38752,0 25.55009,-25.5501 70.26276,-25.5501 44.71267,0 81.44093,-1.59688 95.81286,3.19377 14.37193,4.79064 51.10019,23.95321 54.29396,36.72826 3.19376,12.77505 3.19376,23.95321 12.77504,31.93762 9.58129,7.9844 19.16258,15.96881 19.16258,23.95321 0,7.98441 6.38752,83.03782 6.38752,99.00663 0,15.96881 -3.19376,65.47212 -3.19376,65.47212 l -20.75945,36.72826 c 0,0 -30.34074,20.75945 -30.34074,28.74386 0,7.9844 -202.80389,199.61012 -213.98206,199.61012 -11.17816,0 -25.55009,4.7906 -25.55009,4.7906 l -6.38753,11.1782 c 0,0 -46.30955,15.9688 -60.68147,11.1782 -14.37193,-4.7907 -15.96881,-14.3719 -15.96881,-14.3719 0,0 -31.93762,11.1781 -31.93762,19.1625 0,7.9844 -11.17817,15.9688 -11.17817,15.9688 l -57.48772,36.7283 v -12.7751 l -30.34074,20.7595 -6.38752,-7.9844 -15.96881,19.1626 -47.90643,-57.4877 -15.96881,12.775 -86.231574,-99.0066 -7.984405,-15.9688 14.371929,-11.1782 1.596881,-11.1782 19.162572,-20.7594 -1.596881,-17.5657 27.146977,-27.14699 63.875241,-35.13138 17.56569,-22.35633 z"
       id="gct"
       inkscape:highlight-color="#eb35f3"
       inkscape:label="#gct" />
    <path
       style="fill:#ff00ff"
       d="m 1078.3529,727.18251 c 0,0 -9.5979,40.64995 -16.9374,45.73119 -7.3396,5.08125 -10.1625,23.71248 -15.2438,29.3583 -5.0812,5.64583 -26.5354,16.3729 -26.5354,16.3729 0,0 -35.56867,3.3875 -38.95617,1.12917 -3.38749,-2.25833 -7.33957,-3.95208 -7.33957,-3.95208 0,0 -33.87496,38.39162 -39.52079,42.90828 -5.64583,4.51666 -50.24786,12.42082 -52.50619,18.63123 -2.25833,6.21041 -7.33957,16.93748 -7.33957,16.93748 0,0 100.49571,28.22914 102.75405,29.3583 2.25833,1.12917 36.13324,40.64996 36.13324,40.64996 0,0 1.1292,20.88956 17.5021,32.18121 16.3729,11.29165 32.7458,40.08535 32.7458,40.08535 l 5.0813,30.4875 294.7121,-5.0813 -33.8749,-238.25385 -27.6646,-1.69375 -8.4687,-57.58744 c 0,0 -88.6395,9.59791 -93.7208,2.82292 -5.0812,-6.775 4.5167,-12.42082 4.5167,-12.42082 l 7.3396,-12.42082 -13.55,-9.59791 -7.9042,7.90416 -5.6458,-6.77499 -9.5979,6.21041 -2.8229,-8.46874 -11.8563,4.51666 -5.6458,-10.16249 -9.0333,8.46874 -12.9854,5.08125 z"
       id="overworld"
       inkscape:label="#overworld" />
    <path
       style="fill:#ff00ff"
       d="m 773.47829,376.57665 22.01872,3.3875 22.58331,-9.5979 c 0,0 -6.21041,14.67915 -1.12917,15.24373 5.08125,0.56458 6.21041,-16.3729 6.21041,-16.3729 l 27.09997,13.54998 46.86037,0.56459 c 0,0 3.38749,-10.16249 10.72707,-10.72707 7.33957,-0.56459 14.11456,6.77499 14.11456,6.77499 l 0.56459,8.46874 -4.51666,5.08124 c 0,0 16.93748,5.08125 26.53538,12.42082 9.59791,7.33958 10.72707,8.46874 10.72707,8.46874 0,0 15.80832,-5.08124 20.88956,-1.12916 5.08125,3.95208 -2.25833,14.11456 -2.25833,14.11456 0,0 3.3875,-11.85623 12.42082,-5.64582 9.03332,6.21041 21.45414,28.79371 21.45414,28.79371 l 27.6646,14.67915 9.5979,-1.69374 28.7937,15.24373 40.6499,1.69375 54.7646,-191.95812 105.5769,51.94161 c 0,0 -24.277,69.44367 -15.8083,64.92701 8.4687,-4.51666 9.0333,-3.95208 9.5979,-0.56458 0.5646,3.38749 -19.7604,90.33323 -19.7604,90.33323 l 75.6541,-89.76865 c 0,0 -49.6833,-6.77499 -42.9083,-25.9708 6.775,-19.19582 11.2917,-34.43955 11.2917,-34.43955 l -140.5811,-62.66868 -187.44148,-85.81657 -77.91241,58.15202 -22.01873,-12.9854 -7.90415,9.03332 1.12916,22.01873 -10.72707,9.03332 -20.32498,-11.29165 -6.21041,5.08124 -1.69375,32.18121 -47.98952,35.56871 9.03332,11.29166 v 14.11456 l -12.42082,7.90416 z"
       id="gallery"
       inkscape:label="#gallery" />
    <path
       style="fill:#ff00ff"
       d="m 484.41195,313.34339 29.3583,119.12695 34.43954,24.84164 c 0,0 138.88735,-75.65408 139.45193,-78.47699 0.56458,-2.82292 -1.69375,-46.29578 -1.69375,-46.29578 L 576.43893,259.70804 Z"
       id="music"
       inkscape:label="#music" />
    <path
       style="fill:#ff00ff"
       d="m 185.74771,770.65537 53.07077,0.56459 21.45414,-15.24374 c 0,0 -3.95208,-16.37289 12.42082,-16.93748 16.3729,-0.56458 20.88956,-6.77499 20.88956,-6.77499 l 22.58331,-11.85624 c 0,0 -1.69375,-15.24373 6.77499,-15.80831 8.46874,-0.56458 25.40622,-3.95208 25.40622,-3.95208 0,0 17.50206,-29.3583 26.53539,-31.05205 9.03332,-1.69375 25.9708,-11.85623 25.9708,-11.85623 l 27.09997,-40.08538 -39.52079,-136.06442 -60.97493,-64.36243 -7.90416,11.85624 c 0,0 -62.10409,-41.21454 -85.25198,-45.16662 -23.14789,-3.95208 -82.99366,7.90416 -102.75405,20.32498 -19.7604,12.42082 -43.47287,30.48746 -50.247862,57.58743 -6.774993,27.09997 -15.808316,147.35608 -10.727072,165.42273 5.081245,18.06665 76.783244,116.30403 86.945734,124.77277 10.16249,8.46874 25.40622,20.32498 28.22914,18.63123 z"
       id="toris"
       inkscape:label="#toris" />
  </g>
</svg>
